<?xml version="1.0" encoding="utf-8"?>
<!-- Generator: Adobe Illustrator 14.0.0, SVG Export Plug-In . SVG Version: 6.00 Build 43363)  -->
<!DOCTYPE svg PUBLIC "-//W3C//DTD SVG 1.1//EN" "http://www.w3.org/Graphics/SVG/1.1/DTD/svg11.dtd">
<svg version="1.1" id="Layer_1" xmlns="http://www.w3.org/2000/svg" xmlns:xlink="http://www.w3.org/1999/xlink" x="0px" y="0px"
	 width="512px" height="512px" viewBox="0 0 512 512" enable-background="new 0 0 512 512" xml:space="preserve">
<path id="puzzle-1" d="M111.893,291.953c14.712,0,19.691-7.888,25.684-13.867c12.236-12.28,27.278-7.051,27.278,12.736v91.381
	h91.381c19.786,0,25.014-15.042,12.744-27.277c-5.986-5.993-13.875-10.974-13.875-25.692c0-16.35,16.671-37.28,45.124-37.28
	c28.453,0,45.125,20.931,45.125,37.28c0,14.719-7.888,19.699-13.866,25.692c-12.28,12.235-7.051,27.277,12.735,27.277h91.381
	v-91.381c0-19.787-15.042-25.017-27.277-12.736c-5.993,5.979-10.973,13.867-25.691,13.867c-16.35,0-37.281-16.674-37.281-45.125
	c0-28.455,20.932-45.129,37.281-45.129c14.719,0,19.698,7.889,25.691,13.876c12.235,12.274,27.277,7.044,27.277-12.746v-91.38
	h-91.381c-19.786,0-25.016-15.042-12.735-27.277c5.979-5.993,13.866-10.973,13.866-25.684c0-16.357-16.672-37.289-45.125-37.289
	c-28.452,0-45.124,20.932-45.124,37.289c0,14.711,7.888,19.691,13.875,25.683c12.271,12.236,7.042,27.278-12.744,27.278h-91.381
	v91.38c0,19.79-15.042,25.02-27.277,12.746c-5.994-5.987-10.973-13.876-25.685-13.876c-16.356,0-37.288,16.674-37.288,45.129
	C74.604,275.279,95.537,291.953,111.893,291.953z"/>
<text transform="matrix(1 0 0 1 187.7983 475.2617)" font-family="'MyriadPro-BoldCond'" font-size="105">BUILD</text>
</svg>
