<?xml version="1.0" encoding="UTF-8" standalone="no"?>
<!-- Generator: Adobe Illustrator 14.0.0, SVG Export Plug-In . SVG Version: 6.00 Build 43363)  -->

<svg
   xmlns:dc="http://purl.org/dc/elements/1.1/"
   xmlns:cc="http://creativecommons.org/ns#"
   xmlns:rdf="http://www.w3.org/1999/02/22-rdf-syntax-ns#"
   xmlns:svg="http://www.w3.org/2000/svg"
   xmlns="http://www.w3.org/2000/svg"
   xmlns:sodipodi="http://sodipodi.sourceforge.net/DTD/sodipodi-0.dtd"
   xmlns:inkscape="http://www.inkscape.org/namespaces/inkscape"
   version="1.1"
   id="Layer_1"
   x="0px"
   y="0px"
   width="591.40381"
   height="498.56482"
   viewBox="0 0 591.40381 498.56482"
   enable-background="new 0 0 512 512"
   xml:space="preserve"
   inkscape:version="0.48.4 r9939"
   sodipodi:docname="iconmonstr-puzzle-17-icon-text.svg"><metadata
     id="metadata10"><rdf:RDF><cc:Work
         rdf:about=""><dc:format>image/svg+xml</dc:format><dc:type
           rdf:resource="http://purl.org/dc/dcmitype/StillImage" /></cc:Work></rdf:RDF></metadata><defs
     id="defs8" /><sodipodi:namedview
     pagecolor="#ffffff"
     bordercolor="#666666"
     borderopacity="1"
     objecttolerance="10"
     gridtolerance="10"
     guidetolerance="10"
     inkscape:pageopacity="0"
     inkscape:pageshadow="2"
     inkscape:window-width="862"
     inkscape:window-height="738"
     id="namedview6"
     showgrid="false"
     fit-margin-left="20"
     fit-margin-top="20"
     fit-margin-right="20"
     fit-margin-bottom="19.8"
     inkscape:zoom="0.4609375"
     inkscape:cx="257.44529"
     inkscape:cy="241.36383"
     inkscape:window-x="450"
     inkscape:window-y="315"
     inkscape:window-maximized="0"
     inkscape:current-layer="Layer_1" /><path
     id="puzzle-17"
     d="m 295.7059,213.376 v 60.257 c 0,13.045 -9.923,16.474 -17.985,8.396 -3.952,-3.951 -7.235,-9.15 -16.94,-9.15 -10.779,0 -24.578,10.981 -24.578,29.748 0,18.77 13.799,29.751 24.578,29.751 9.706,0 12.988,-5.201 16.94,-9.152 8.062,-8.076 17.985,-4.647 17.985,8.396 v 45.382 H 117.2009 V 213.376 h 67.679 c 13.872,0 20.177,-8.556 20.177,-16.502 0,-6.885 -3.719,-11.504 -8.396,-15.994 -3.283,-3.066 -5.084,-4.75 -5.084,-9.863 0,-7.001 7.945,-17.142 22.312,-17.142 14.366,0 22.312,10.14 22.312,17.142 0,5.113 -1.802,6.798 -5.084,9.863 -4.678,4.488 -8.396,9.107 -8.396,15.994 0,7.946 6.305,16.502 20.178,16.502 h 52.807 z m 32.493,-94.327 c 3.064,3.275 4.749,5.077 9.863,5.077 7.001,0 17.141,-7.946 17.141,-22.312 0,-14.366 -10.14,-22.313 -17.141,-22.313 -5.113,0 -6.799,1.801 -9.863,5.077 -4.46,4.663 -9.108,8.411 -15.993,8.411 -7.944,0 -16.5,-6.318 -16.5,-20.184 V 20 h -178.505 v 178.5 h 67.679 c 7.931,0 6.565,-2.041 1.612,-6.754 -3.894,-3.646 -9.791,-9.166 -9.791,-20.729 0,-15.457 14.934,-32.016 37.188,-32.016 22.254,0 37.188,16.56 37.188,32.016 0,11.563 -5.898,17.083 -9.791,20.729 -4.924,4.692 -6.362,6.754 1.612,6.754 h 52.808 v -67.678 c 0,-13.865 8.556,-20.185 16.5,-20.185 6.884,0.001 11.503,3.741 15.993,8.412 z M 310.5789,20 v 52.803 c 0,7.924 2.034,6.58 6.754,1.62 3.646,-3.9 9.166,-9.798 20.729,-9.798 15.456,0 32.016,14.94 32.016,37.188 0,22.248 -16.56,37.188 -32.016,37.188 -11.563,0 -17.083,-5.898 -20.729,-9.799 -4.72,-4.924 -6.754,-6.333 -6.754,1.62 v 67.679 h 45.365 c 13.045,0 16.502,9.916 8.395,17.985 -3.937,3.952 -9.137,7.235 -9.137,16.938 0,10.779 10.996,24.58 29.751,24.58 18.754,0 29.749,-13.801 29.749,-24.58 0,-9.703 -5.2,-12.986 -9.136,-16.938 -8.106,-8.069 -4.649,-17.985 8.395,-17.985 h 60.242 v -178.5 h -163.624 z"
     inkscape:connector-curvature="0" /><text
     font-size="105"
     id="text4"
     x="19.179688"
     y="477.078"
     style="font-size:105px;font-family:MyriadPro-BoldCond">ASSEMBLE</text>
</svg>