<?xml version="1.0" encoding="utf-8"?>
<!-- Generator: Adobe Illustrator 14.0.0, SVG Export Plug-In . SVG Version: 6.00 Build 43363)  -->
<!DOCTYPE svg PUBLIC "-//W3C//DTD SVG 1.1//EN" "http://www.w3.org/Graphics/SVG/1.1/DTD/svg11.dtd">
<svg version="1.1" id="Layer_1" xmlns="http://www.w3.org/2000/svg" xmlns:xlink="http://www.w3.org/1999/xlink" x="0px" y="0px"
	 width="512px" height="512px" viewBox="0 0 512 512" enable-background="new 0 0 512 512" xml:space="preserve">
<path id="puzzle-17" d="M259.27,218.175v60.257c0,13.045-9.923,16.474-17.985,8.396c-3.952-3.951-7.235-9.15-16.94-9.15
	c-10.779,0-24.578,10.981-24.578,29.748c0,18.77,13.799,29.751,24.578,29.751c9.706,0,12.988-5.201,16.94-9.152
	c8.062-8.076,17.985-4.647,17.985,8.396v45.382H80.765V218.175h67.679c13.872,0,20.177-8.556,20.177-16.502
	c0-6.885-3.719-11.504-8.396-15.994c-3.283-3.066-5.084-4.75-5.084-9.863c0-7.001,7.945-17.142,22.312-17.142
	c14.366,0,22.312,10.14,22.312,17.142c0,5.113-1.802,6.798-5.084,9.863c-4.678,4.488-8.396,9.107-8.396,15.994
	c0,7.946,6.305,16.502,20.178,16.502H259.27z M291.763,123.848c3.064,3.275,4.749,5.077,9.863,5.077
	c7.001,0,17.141-7.946,17.141-22.312S308.627,84.3,301.626,84.3c-5.113,0-6.799,1.801-9.863,5.077
	c-4.46,4.663-9.108,8.411-15.993,8.411c-7.944,0-16.5-6.318-16.5-20.184V24.799H80.765v178.5h67.679
	c7.931,0,6.565-2.041,1.612-6.754c-3.894-3.646-9.791-9.166-9.791-20.729c0-15.457,14.934-32.016,37.188-32.016
	c22.254,0,37.188,16.56,37.188,32.016c0,11.563-5.898,17.083-9.791,20.729c-4.924,4.692-6.362,6.754,1.612,6.754h52.808v-67.678
	c0-13.865,8.556-20.185,16.5-20.185C282.654,115.437,287.273,119.177,291.763,123.848z M274.143,24.799v52.803
	c0,7.924,2.034,6.58,6.754,1.62c3.646-3.9,9.166-9.798,20.729-9.798c15.456,0,32.016,14.94,32.016,37.188
	c0,22.248-16.56,37.188-32.016,37.188c-11.563,0-17.083-5.898-20.729-9.799c-4.72-4.924-6.754-6.333-6.754,1.62v67.679h45.365
	c13.045,0,16.502,9.916,8.395,17.985c-3.937,3.952-9.137,7.235-9.137,16.938c0,10.779,10.996,24.58,29.751,24.58
	c18.754,0,29.749-13.801,29.749-24.58c0-9.703-5.2-12.986-9.136-16.938c-8.106-8.069-4.649-17.985,8.395-17.985h60.242v-178.5
	H274.143z"/>
<text transform="matrix(1 0 0 1 73.7344 475.877)" font-family="'MyriadPro-BoldCond'" font-size="105">ASSEMBLE</text>
</svg>
