<?xml version="1.0" encoding="utf-8"?>
<!-- Generator: Adobe Illustrator 14.0.0, SVG Export Plug-In . SVG Version: 6.00 Build 43363)  -->
<!DOCTYPE svg PUBLIC "-//W3C//DTD SVG 1.1//EN" "http://www.w3.org/Graphics/SVG/1.1/DTD/svg11.dtd">
<svg version="1.1" id="Layer_1" xmlns="http://www.w3.org/2000/svg" xmlns:xlink="http://www.w3.org/1999/xlink" x="0px" y="0px"
	 width="512px" height="512px" viewBox="0 0 512 512" enable-background="new 0 0 512 512" xml:space="preserve">
<path id="flask-3-icon" d="M188.473,58.952c0-8.921,7.231-16.152,16.152-16.152h98.93c8.922,0,16.152,7.231,16.152,16.152
	s-7.23,16.152-16.152,16.152h-98.93C195.704,75.104,188.473,67.873,188.473,58.952z M346.123,375.542H162.058
	c-24.927,0-41.333-26.089-30.53-48.555l52.371-108.922c14.573-30.309,22.139-63.507,22.139-97.136V99.333h32.077
	c0,22.918,2.726,64.544-17.77,116.029H265.4l57.242,120.156c6.318,13.215,24.992,6.079,18.447-7.52
	c-5.879-12.211-16.816-35.402-45.922-95.935c-29.012-60.344-25.146-109.848-25.146-132.732h32.121v21.594
	c0,33.63,7.566,66.829,22.139,97.137l52.371,108.922C387.455,349.453,371.053,375.542,346.123,375.542z M217.038,315.814
	c0-9.935-8.055-17.988-17.99-17.988s-17.99,8.055-17.99,17.988c0,9.937,8.056,17.99,17.99,17.99S217.038,325.751,217.038,315.814z
	 M242.333,273.661c0-6.071-4.922-10.993-10.993-10.993s-10.994,4.923-10.994,10.993c0,6.071,4.923,10.994,10.994,10.994
	S242.333,279.732,242.333,273.661z M273.094,320.213c0-7.728-6.266-13.992-13.991-13.992s-13.992,6.265-13.992,13.992
	c0,7.726,6.267,13.992,13.992,13.992S273.094,327.939,273.094,320.213z"/>
<text transform="matrix(1 0 0 1 135.4434 469.6768)" font-family="'MyriadPro-BoldCond'" font-size="105">QUERY</text>
</svg>
