<?xml version="1.0" encoding="utf-8"?>

<!-- The icon can be used freely in both personal and commercial projects with no attribution required, but always appreciated. 
You may NOT sub-license, resell, rent, redistribute or otherwise transfer the icon without express written permission from iconmonstr.com -->

<!DOCTYPE svg PUBLIC "-//W3C//DTD SVG 1.1//EN" "http://www.w3.org/Graphics/SVG/1.1/DTD/svg11.dtd">
<svg version="1.1" xmlns="http://www.w3.org/2000/svg" xmlns:xlink="http://www.w3.org/1999/xlink" x="0px" y="0px"
	 width="512px" height="512px" viewBox="0 0 512 512" enable-background="new 0 0 512 512" xml:space="preserve">
<path id="network-icon" d="M318.743,335.639c-12.992,12.697-12.629,33.229,0.682,44.691c-15.801,30.896-37.082,58.541-62.541,81.658
	c-99.766,0.652-185.461-71.018-203.444-168.312c18.181-30.537,41.9-57.411,69.77-79.218c12.528,8.471,29.74,6.061,40.069-5.619
	C229.093,231.007,284.229,276.588,318.743,335.639z M59.392,194.31c-6.809,21.721-9.962,44.4-9.31,67.663
	c17.194-24.021,37.69-45.437,61.378-63.899c-0.13-0.475-0.248-0.955-0.355-1.439C93.381,194.222,76.449,193.534,59.392,194.31z
	 M454.437,200.571c-25.221-16.545-53.205-29.213-83.107-37.121c-2.4,4.416-6.078,8.021-10.605,10.498
	c13.451,51.861,13.062,107.001-1.244,158.749c14.75,11.314,15.465,33.297,1.344,46.361c5.23,15.121,9.252,30.689,12.045,46.58
	C447.085,374.406,477.513,283.361,454.437,200.571z M311.382,154.292c-48.943-2.195-97.079,8.086-140.532,29.953
	c0.313,2.311,0.329,4.145,0.214,5.977c72.244,24.58,130.344,75.058,165.873,136.552c1.207-0.156,2.08-0.225,3.404-0.258
	c13.391-48.66,13.582-100.349,0.494-149.175C327.065,175.464,315.622,166.005,311.382,154.292z M340.071,117.871
	c15.73,0.767,29.33,11.654,33.236,25.342c24.471,6.14,48.002,15.3,70.145,27.282c-26.754-58.563-80.143-102.4-144.678-116.033
	C315.274,73.987,329.097,95.276,340.071,117.871z M66.943,174.067c15.469-0.277,30.674,0.541,46.582,2.674
	c8.983-18.414,32.96-23.592,47.857-10.326c47.487-23.951,99.292-34.322,150.249-32.123c1.838-4.363,4.848-8.064,8.686-10.848
	c-13.631-27.119-31.471-51.771-52.646-73.107C178.576,45.353,100.253,97.318,66.943,174.067z M338.38,387.57
	c-13.043,25.996-29.896,50.207-50.277,71.934c23.684-3.707,46.029-11.445,66.312-22.496c-2.539-17.068-6.59-33.648-12.02-49.6
	C341.175,387.531,340.083,387.611,338.38,387.57z"/>
</svg>
