<?xml version="1.0" encoding="UTF-8" standalone="no"?>
<!-- Generator: Adobe Illustrator 14.0.0, SVG Export Plug-In . SVG Version: 6.00 Build 43363)  -->

<svg
   xmlns:dc="http://purl.org/dc/elements/1.1/"
   xmlns:cc="http://creativecommons.org/ns#"
   xmlns:rdf="http://www.w3.org/1999/02/22-rdf-syntax-ns#"
   xmlns:svg="http://www.w3.org/2000/svg"
   xmlns="http://www.w3.org/2000/svg"
   xmlns:sodipodi="http://sodipodi.sourceforge.net/DTD/sodipodi-0.dtd"
   xmlns:inkscape="http://www.inkscape.org/namespaces/inkscape"
   version="1.1"
   id="Layer_1"
   x="0px"
   y="0px"
   width="591.40381"
   height="498.56482"
   viewBox="0 0 591.40381 498.56482"
   enable-background="new 0 0 512 512"
   xml:space="preserve"
   inkscape:version="0.48.4 r9939"
   sodipodi:docname="iconmonstr-puzzle-icon-text.svg"><metadata
     id="metadata10"><rdf:RDF><cc:Work
         rdf:about=""><dc:format>image/svg+xml</dc:format><dc:type
           rdf:resource="http://purl.org/dc/dcmitype/StillImage" /><dc:title></dc:title></cc:Work></rdf:RDF></metadata><defs
     id="defs8" /><sodipodi:namedview
     pagecolor="#ffffff"
     bordercolor="#666666"
     borderopacity="1"
     objecttolerance="10"
     gridtolerance="10"
     guidetolerance="10"
     inkscape:pageopacity="0"
     inkscape:pageshadow="2"
     inkscape:window-width="862"
     inkscape:window-height="738"
     id="namedview6"
     showgrid="false"
     fit-margin-left="20"
     fit-margin-top="20"
     fit-margin-right="20"
     fit-margin-bottom="19.8"
     inkscape:zoom="0.4609375"
     inkscape:cx="257.44529"
     inkscape:cy="241.36383"
     inkscape:window-x="450"
     inkscape:window-y="315"
     inkscape:window-maximized="0"
     inkscape:current-layer="Layer_1" /><path
     id="flask-3-icon"
     d="m 231.60311,51.527791 c 0,-8.921 7.231,-16.152 16.152,-16.152 h 98.93 c 8.922,0 16.152,7.231 16.152,16.152 0,8.921 -7.23,16.152 -16.152,16.152 h -98.93 c -8.921,0 -16.152,-7.231 -16.152,-16.152 z m 157.65,316.589999 h -184.065 c -24.927,0 -41.333,-26.089 -30.53,-48.555 l 52.371,-108.922 c 14.573,-30.309 22.139,-63.507 22.139,-97.136 V 91.908791 h 32.077 c 0,22.917999 2.726,64.543999 -17.77,116.028999 h 45.055 l 57.242,120.156 c 6.318,13.215 24.992,6.079 18.447,-7.52 -5.879,-12.211 -16.816,-35.402 -45.922,-95.935 -29.012,-60.344 -25.146,-109.848 -25.146,-132.731999 h 32.121 v 21.593999 c 0,33.63 7.566,66.829 22.139,97.137 l 52.371,108.922 c 10.803,22.469 -5.599,48.558 -30.529,48.558 z m -129.085,-59.728 c 0,-9.935 -8.055,-17.988 -17.99,-17.988 -9.935,0 -17.99,8.055 -17.99,17.988 0,9.937 8.056,17.99 17.99,17.99 9.934,0 17.99,-8.053 17.99,-17.99 z m 25.295,-42.153 c 0,-6.071 -4.922,-10.993 -10.993,-10.993 -6.071,0 -10.994,4.923 -10.994,10.993 0,6.071 4.923,10.994 10.994,10.994 6.071,0 10.993,-4.923 10.993,-10.994 z m 30.761,46.552 c 0,-7.728 -6.266,-13.992 -13.991,-13.992 -7.725,0 -13.992,6.265 -13.992,13.992 0,7.726 6.267,13.992 13.992,13.992 7.725,0 13.991,-6.266 13.991,-13.992 z"
     inkscape:connector-curvature="0" /><text
     font-size="105"
     id="text3255"
     x="115.98254"
     y="462.25259"
     style="font-size:105px;font-family:MyriadPro-BoldCond">QUERY</text>
</svg>