<?xml version="1.0" encoding="utf-8"?>
<!-- Generator: Adobe Illustrator 14.0.0, SVG Export Plug-In . SVG Version: 6.00 Build 43363)  -->
<!DOCTYPE svg PUBLIC "-//W3C//DTD SVG 1.1//EN" "http://www.w3.org/Graphics/SVG/1.1/DTD/svg11.dtd">
<svg version="1.1" id="Layer_1" xmlns="http://www.w3.org/2000/svg" xmlns:xlink="http://www.w3.org/1999/xlink" x="0px" y="0px"
	 width="512px" height="512px" viewBox="0 0 512 512" enable-background="new 0 0 512 512" xml:space="preserve">
<text transform="matrix(1 0 0 1 136.6123 479.3496)" font-family="'MyriadPro-Bold'" font-size="105">MINE</text>
<path fill-rule="evenodd" clip-rule="evenodd" d="M325.068,37.7c-24.914,41.123-64.357,67.731-91.452,106.683
	c16.345,12.79,30.875,27.741,45.128,42.771c17.568,18.525,34.723,37.497,52.991,55.344c15.036,14.688,31.874,27.425,47.887,41.002
	c7.798,6.613,15.501,13.383,22.624,20.728c5.813,5.996,11.461,12.461,15.402,19.875c3.464,6.516,4.978,13.47,2.962,20.712
	c-2.578,9.261-9.096,17.331-16.254,23.53c-3.299,2.856-6.9,5.441-10.818,7.383c-2.805,1.391-5.796,2.447-8.958,2.435
	c-5.882-0.022-11.585-2.629-16.602-5.479c-6.867-3.904-13.143-8.831-19.12-13.973c-6.954-5.98-13.539-12.384-19.951-18.939
	c-12.268-12.541-23.812-25.745-35.654-38.681c-6.054-6.612-12.422-12.902-18.667-19.33c-8.89-9.148-17.609-18.457-26.332-27.765
	c-15.641-16.691-31.399-33.304-48.767-48.229c-2.155-1.851-4.331-3.677-6.528-5.478c-27.601,13.045-30.009,51.273-55.883,66.054
	c-28.356-15.69-50.375-37.709-66.057-66.054c18.824-21.833,38.062-43.23,60.97-60.97c-1.56-11.991-17.646-9.449-15.237-25.41
	c16.643-8.766,24.003-26.815,40.646-35.561c14.896,0.331,18.876,11.6,25.41,20.323C225.584,76.734,268.482,28.997,325.068,37.7"/>
</svg>
